<mxfile host="65bd71144e">
    <diagram name="Page-1" id="58cdce13-f638-feb5-8d6f-7d28b1aa9fa0">
        <mxGraphModel dx="596" dy="605" grid="1" gridSize="10" guides="1" tooltips="1" connect="1" arrows="1" fold="1" page="1" pageScale="1" pageWidth="1100" pageHeight="850" background="none" math="0" shadow="0">
            <root>
                <mxCell id="0"/>
                <mxCell id="1" parent="0"/>
                <mxCell id="yz9Li9zxegXqcpQhX1u8-1" value="" style="ellipse;html=1;shape=startState;fillColor=#000000;strokeColor=#ff0000;" parent="1" vertex="1">
                    <mxGeometry x="145" y="265" width="30" height="30" as="geometry"/>
                </mxCell>
                <mxCell id="yz9Li9zxegXqcpQhX1u8-6" value="" style="ellipse;html=1;shape=endState;fillColor=#000000;strokeColor=#ff0000;" parent="1" vertex="1">
                    <mxGeometry x="700" y="225" width="30" height="30" as="geometry"/>
                </mxCell>
                <mxCell id="yz9Li9zxegXqcpQhX1u8-19" style="edgeStyle=orthogonalEdgeStyle;curved=1;orthogonalLoop=1;jettySize=auto;html=1;strokeColor=#000000;" parent="1" source="yz9Li9zxegXqcpQhX1u8-9" target="yz9Li9zxegXqcpQhX1u8-18" edge="1">
                    <mxGeometry relative="1" as="geometry"/>
                </mxCell>
                <mxCell id="yz9Li9zxegXqcpQhX1u8-21" value="SIGINT" style="edgeLabel;html=1;align=center;verticalAlign=middle;resizable=0;points=[];" parent="yz9Li9zxegXqcpQhX1u8-19" vertex="1" connectable="0">
                    <mxGeometry x="-0.0015" y="-3" relative="1" as="geometry">
                        <mxPoint x="-22" y="-30" as="offset"/>
                    </mxGeometry>
                </mxCell>
                <mxCell id="yz9Li9zxegXqcpQhX1u8-20" style="edgeStyle=orthogonalEdgeStyle;curved=1;orthogonalLoop=1;jettySize=auto;html=1;strokeColor=#000000;" parent="1" source="yz9Li9zxegXqcpQhX1u8-9" target="yz9Li9zxegXqcpQhX1u8-16" edge="1">
                    <mxGeometry relative="1" as="geometry"/>
                </mxCell>
                <mxCell id="yz9Li9zxegXqcpQhX1u8-22" value="&amp;lt;time has elapsed&amp;gt;" style="edgeLabel;html=1;align=center;verticalAlign=middle;resizable=0;points=[];" parent="yz9Li9zxegXqcpQhX1u8-20" vertex="1" connectable="0">
                    <mxGeometry x="-0.0313" y="-3" relative="1" as="geometry">
                        <mxPoint y="54" as="offset"/>
                    </mxGeometry>
                </mxCell>
                <mxCell id="yz9Li9zxegXqcpQhX1u8-9" value="active" style="ellipse;whiteSpace=wrap;html=1;aspect=fixed;" parent="1" vertex="1">
                    <mxGeometry x="280" y="120" width="80" height="80" as="geometry"/>
                </mxCell>
                <mxCell id="yz9Li9zxegXqcpQhX1u8-10" value="pomodoro interrupt" style="endArrow=classic;html=1;exitX=0;exitY=0;exitDx=0;exitDy=0;entryX=1;entryY=0;entryDx=0;entryDy=0;curved=1;strokeColor=#000000;" parent="1" source="yz9Li9zxegXqcpQhX1u8-9" target="yz9Li9zxegXqcpQhX1u8-9" edge="1">
                    <mxGeometry x="-0.2413" y="-7" width="50" height="50" relative="1" as="geometry">
                        <mxPoint x="380" y="230" as="sourcePoint"/>
                        <mxPoint x="430" y="180" as="targetPoint"/>
                        <Array as="points">
                            <mxPoint x="320" y="60"/>
                        </Array>
                        <mxPoint as="offset"/>
                    </mxGeometry>
                </mxCell>
                <mxCell id="yz9Li9zxegXqcpQhX1u8-12" style="edgeStyle=orthogonalEdgeStyle;curved=1;orthogonalLoop=1;jettySize=auto;html=1;strokeColor=#000000;entryX=0;entryY=0.5;entryDx=0;entryDy=0;exitX=0.5;exitY=0;exitDx=0;exitDy=0;" parent="1" source="yz9Li9zxegXqcpQhX1u8-1" target="yz9Li9zxegXqcpQhX1u8-9" edge="1">
                    <mxGeometry relative="1" as="geometry">
                        <mxPoint x="160" y="240" as="sourcePoint"/>
                    </mxGeometry>
                </mxCell>
                <mxCell id="yz9Li9zxegXqcpQhX1u8-13" value="pomodoro start" style="edgeLabel;html=1;align=center;verticalAlign=middle;resizable=0;points=[];" parent="yz9Li9zxegXqcpQhX1u8-12" vertex="1" connectable="0">
                    <mxGeometry x="0.2" y="1" relative="1" as="geometry">
                        <mxPoint x="-14" y="-14" as="offset"/>
                    </mxGeometry>
                </mxCell>
                <mxCell id="yz9Li9zxegXqcpQhX1u8-26" style="edgeStyle=orthogonalEdgeStyle;curved=1;orthogonalLoop=1;jettySize=auto;html=1;strokeColor=#000000;entryX=0;entryY=0.5;entryDx=0;entryDy=0;entryPerimeter=0;exitX=0.5;exitY=1;exitDx=0;exitDy=0;" parent="1" source="yz9Li9zxegXqcpQhX1u8-1" target="yz9Li9zxegXqcpQhX1u8-25" edge="1">
                    <mxGeometry relative="1" as="geometry">
                        <mxPoint x="160" y="320" as="sourcePoint"/>
                    </mxGeometry>
                </mxCell>
                <mxCell id="yz9Li9zxegXqcpQhX1u8-31" value="break start" style="edgeLabel;html=1;align=center;verticalAlign=middle;resizable=0;points=[];" parent="yz9Li9zxegXqcpQhX1u8-26" vertex="1" connectable="0">
                    <mxGeometry x="-0.0523" y="2" relative="1" as="geometry">
                        <mxPoint as="offset"/>
                    </mxGeometry>
                </mxCell>
                <mxCell id="yz9Li9zxegXqcpQhX1u8-24" style="edgeStyle=orthogonalEdgeStyle;curved=1;orthogonalLoop=1;jettySize=auto;html=1;entryX=0;entryY=0.5;entryDx=0;entryDy=0;strokeColor=#000000;" parent="1" source="yz9Li9zxegXqcpQhX1u8-16" target="yz9Li9zxegXqcpQhX1u8-6" edge="1">
                    <mxGeometry relative="1" as="geometry"/>
                </mxCell>
                <mxCell id="yz9Li9zxegXqcpQhX1u8-16" value="finished" style="ellipse;whiteSpace=wrap;html=1;aspect=fixed;" parent="1" vertex="1">
                    <mxGeometry x="518" y="200" width="80" height="80" as="geometry"/>
                </mxCell>
                <mxCell id="yz9Li9zxegXqcpQhX1u8-23" style="edgeStyle=orthogonalEdgeStyle;curved=1;orthogonalLoop=1;jettySize=auto;html=1;strokeColor=#000000;entryX=0.5;entryY=0;entryDx=0;entryDy=0;" parent="1" source="yz9Li9zxegXqcpQhX1u8-18" target="yz9Li9zxegXqcpQhX1u8-6" edge="1">
                    <mxGeometry relative="1" as="geometry">
                        <mxPoint x="670" y="165" as="targetPoint"/>
                    </mxGeometry>
                </mxCell>
                <mxCell id="yz9Li9zxegXqcpQhX1u8-18" value="cancelled" style="ellipse;whiteSpace=wrap;html=1;aspect=fixed;" parent="1" vertex="1">
                    <mxGeometry x="518" y="40" width="80" height="80" as="geometry"/>
                </mxCell>
                <mxCell id="yz9Li9zxegXqcpQhX1u8-29" style="edgeStyle=orthogonalEdgeStyle;curved=1;orthogonalLoop=1;jettySize=auto;html=1;strokeColor=#000000;" parent="1" source="yz9Li9zxegXqcpQhX1u8-25" target="yz9Li9zxegXqcpQhX1u8-27" edge="1">
                    <mxGeometry relative="1" as="geometry">
                        <Array as="points">
                            <mxPoint x="320" y="480"/>
                            <mxPoint x="558" y="480"/>
                        </Array>
                    </mxGeometry>
                </mxCell>
                <mxCell id="yz9Li9zxegXqcpQhX1u8-32" value="&amp;lt;time has elapsed&amp;gt;" style="edgeLabel;html=1;align=center;verticalAlign=middle;resizable=0;points=[];" parent="yz9Li9zxegXqcpQhX1u8-29" vertex="1" connectable="0">
                    <mxGeometry x="0.1337" relative="1" as="geometry">
                        <mxPoint x="-5" y="10" as="offset"/>
                    </mxGeometry>
                </mxCell>
                <mxCell id="yz9Li9zxegXqcpQhX1u8-25" value="active" style="ellipse;whiteSpace=wrap;html=1;aspect=fixed;" parent="1" vertex="1">
                    <mxGeometry x="280" y="360" width="80" height="80" as="geometry"/>
                </mxCell>
                <mxCell id="yz9Li9zxegXqcpQhX1u8-30" style="edgeStyle=orthogonalEdgeStyle;curved=1;orthogonalLoop=1;jettySize=auto;html=1;entryX=0.5;entryY=1;entryDx=0;entryDy=0;strokeColor=#000000;" parent="1" source="yz9Li9zxegXqcpQhX1u8-27" target="yz9Li9zxegXqcpQhX1u8-6" edge="1">
                    <mxGeometry relative="1" as="geometry"/>
                </mxCell>
                <mxCell id="yz9Li9zxegXqcpQhX1u8-27" value="finished" style="ellipse;whiteSpace=wrap;html=1;aspect=fixed;" parent="1" vertex="1">
                    <mxGeometry x="518" y="360" width="80" height="80" as="geometry"/>
                </mxCell>
                <mxCell id="Lok037jigHitee68-vck-1" style="edgeStyle=orthogonalEdgeStyle;orthogonalLoop=1;jettySize=auto;html=1;strokeColor=#000000;curved=1;" parent="1" source="yz9Li9zxegXqcpQhX1u8-25" target="yz9Li9zxegXqcpQhX1u8-27" edge="1">
                    <mxGeometry relative="1" as="geometry">
                        <mxPoint x="350" y="380" as="sourcePoint"/>
                        <mxPoint x="522" y="380" as="targetPoint"/>
                        <Array as="points">
                            <mxPoint x="320" y="320"/>
                            <mxPoint x="558" y="320"/>
                        </Array>
                    </mxGeometry>
                </mxCell>
                <mxCell id="Lok037jigHitee68-vck-2" value="SIGINT" style="edgeLabel;html=1;align=center;verticalAlign=middle;resizable=0;points=[];" parent="Lok037jigHitee68-vck-1" vertex="1" connectable="0">
                    <mxGeometry x="-0.0015" y="-3" relative="1" as="geometry">
                        <mxPoint y="-13" as="offset"/>
                    </mxGeometry>
                </mxCell>
            </root>
        </mxGraphModel>
    </diagram>
</mxfile>
